<?xml version="1.0" encoding="UTF-8" standalone="no"?>
<!-- Created with Inkscape (http://www.inkscape.org/) -->

<svg
   width="210mm"
   height="297mm"
   viewBox="0 0 210 297"
   version="1.1"
   id="svg5"
   inkscape:version="1.1.2 (0a00cf5, 2022-02-04)"
   sodipodi:docname="logo.svg"
   xmlns:inkscape="http://www.inkscape.org/namespaces/inkscape"
   xmlns:sodipodi="http://sodipodi.sourceforge.net/DTD/sodipodi-0.dtd"
   xmlns="http://www.w3.org/2000/svg"
   xmlns:svg="http://www.w3.org/2000/svg">
  <sodipodi:namedview
     id="namedview7"
     pagecolor="#ffffff"
     bordercolor="#666666"
     borderopacity="1.0"
     inkscape:pageshadow="2"
     inkscape:pageopacity="0.0"
     inkscape:pagecheckerboard="0"
     inkscape:document-units="mm"
     showgrid="false"
     inkscape:zoom="1.5037598"
     inkscape:cx="331.50241"
     inkscape:cy="664.66731"
     inkscape:window-width="1848"
     inkscape:window-height="1016"
     inkscape:window-x="72"
     inkscape:window-y="27"
     inkscape:window-maximized="1"
     inkscape:current-layer="layer1" />
  <defs
     id="defs2">
    <filter
       inkscape:label="Pixellize"
       inkscape:menu="Pixel Tools"
       inkscape:menu-tooltip="Reduce or remove antialiasing around shapes"
       style="color-interpolation-filters:sRGB;"
       id="filter413"
       x="0"
       y="0"
       width="1"
       height="1">
      <feColorMatrix
         values="1 0 0 0 0 0 1 0 0 0 0 0 1 0 0 0 0 0 1000 -500 "
         id="feColorMatrix411" />
    </filter>
  </defs>
  <g
     inkscape:label="Layer 1"
     inkscape:groupmode="layer"
     id="layer1">
    <path
       style="fill:#999999;stroke:#000000;stroke-width:0.264583px;stroke-linecap:butt;stroke-linejoin:miter;stroke-opacity:1"
       d="m 20.100794,165.48248 -0.883386,-3.57429 -1.162476,-3.81429 0.007,-3.97632 1.299258,-5.03002 2.248918,-5.61928 2.542466,-4.10942 3.978222,-4.26799 2.563935,-2.11309 7.327294,-4.6513 7.535735,-3.44045 5.414425,-1.16594 7.891208,-0.70774 7.85343,0.65939 6.94481,2.55882 6.72844,2.79662 5.86917,2.83925 3.5282,1.82272 0.86572,0.35027 4.95443,-1.33227 4.970127,-0.80705 6.96162,-0.18663 5.92028,1.35765 4.30735,2.10505 1.74867,0.77391 2.49673,0.30474 2.18224,-0.42025 1.40326,0.98417 0.19269,3.30014 2.45785,3.26706 2.44621,2.77456 1.08635,3.8454 -1.3773,1.20965 -1.35306,1.28903 -0.29726,1.03788 1.66174,5.39501 4.20732,11.37247 1.5728,2.02774 1.16391,1.46339 1.63114,0.83953 0.80396,2.37316 0.0397,2.30708 -1.02488,1.82105 -2.32459,2.55616 -3.63652,1.99576 -3.62565,1.80823 -3.86941,1.45461 -4.9216,1.18375 -8.53922,0.46862 -2.82336,-0.29839 -3.76411,-1.78684 -2.35431,-2.76259 -0.3761,-2.05442 0.22339,-2.16595 -1.00195,-3.44696 -2.059177,0.12859 -1.29557,0.56043 -0.35156,0.81516 0.15244,2.80878 -0.75448,3.69805 -1.22216,5.56048 -0.98897,3.55145 -0.0275,1.73345 0.48652,1.76738 1.31066,1.58328 0.64051,1.24386 0.31151,1.7386 -0.16389,1.33604 -0.83803,1.46763 -1.08528,0.75965 -1.54193,0.10621 -0.82405,0.11533 -0.92199,0.73352 -3.60333,-0.0602 -3.66194,-0.93748 -3.45924,-1.01966 -1.67666,-1.43499 -0.81042,-3.26112 -1.16824,-6.20755 -0.32127,-4.24967 -0.42952,-3.05627 -0.70122,-1.3789 -0.71737,0.89603 -0.69122,1.38812 -0.21369,2.12783 -0.73548,4.31263 -0.40278,5.21117 0.51915,2.09543 2.1128,2.01547 0.95555,1.75873 -0.4238,2.01422 -1.00782,1.66386 -2.71337,0.64241 -0.96715,0.1231 -0.85124,0.46677 -2.50849,0.29041 -3.53521,0.11386 -4.83658,-0.66073 -2.00621,-1.23029 -1.11207,-2.12651 0.15521,-4.96735 -1.01418,-4.99568 -4.319154,-0.72507 -4.551244,-0.64311 -2.484556,-1.05887 -1.332818,-1.44298 0.926137,-6.66012 -1.282398,-4.47141 -3.537416,-1.312 -0.727204,3.89609 2.8054,8.18509 0.907026,4.09445 -3.931226,1.93747 -2.992337,-0.25775 -0.688047,-0.59258 -4.300611,-0.0973 -2.815571,-0.79027 -2.936725,-0.0561 -2.014402,-1.38199 -0.826884,-2.47647 1.593437,-4.48836 0.265015,-5.66482 -1.168747,-8.06525 -1.096147,-3.32415 z"
       id="path466" />
  </g>
</svg>
